<?xml version="1.0" encoding="utf-8"?>
<!-- Generator: Adobe Illustrator 24.0.0, SVG Export Plug-In . SVG Version: 6.00 Build 0)  -->
<svg version="1.1" id="Layer_1" xmlns="http://www.w3.org/2000/svg" xmlns:xlink="http://www.w3.org/1999/xlink" x="0px" y="0px"
	 viewBox="0 0 298.24 258.01" style="enable-background:new 0 0 298.24 258.01;" xml:space="preserve">
<style type="text/css">
	.st0{fill: #ffffff;}
</style>
<g>
	<path class="st0" d="M172.94,158.24V82.3c0-5.41,5.85-8.8,10.54-6.1l27.07,15.56l0.02-9.18c0.02-6.2-3.28-11.93-8.64-15.05
		L117.5,18.51l-0.14,0.08l-0.14-0.08L33.07,67.38c-5.54,3.22-8.94,9.14-8.92,15.55l0.25,96.92l0.2,0.12l-0.2,0.12l0,0.16
		l93.37,53.59l92.83-53.91L172.94,158.24z M157.96,75.59v74.03l-40.67-23.41l0.48-0.28l-0.22-87.64l28.22,16.23
		C153.31,58.86,157.96,66.89,157.96,75.59z M156.13,170.21H78.99l38.35-22.27L156.13,170.21z M54.29,74.43l46.3-26.89l0.18,0.1
		l0.14,71.01c0.02,9.54-5.04,18.37-13.29,23.16l-46.3,26.89l-0.18-17.83L41,97.58C40.97,88.04,46.04,79.22,54.29,74.43z
		 M117.66,212.05l-41.47-23.8h82.46L117.66,212.05z"/>
	<g>
		<path class="st0" d="M184.74,111.15c0-7.35,5.37-12.56,12.72-12.56c7.39,0,12.74,5.22,12.74,12.56s-5.35,12.45-12.74,12.45
			C190.11,123.6,184.74,118.48,184.74,111.15z M197.48,119.11c4.54,0,7.77-3.22,7.77-7.98c0-4.72-3.22-8.03-7.77-8.03
			c-4.51,0-7.76,3.31-7.76,8.03C189.72,115.89,192.99,119.11,197.48,119.11z"/>
		<path class="st0" d="M210.84,98.95h20v4.29h-7.59v20h-4.81v-20h-7.6V98.95z"/>
		<path class="st0" d="M228.22,123.24l9.8-24.3h5.55l9.82,24.3h-5.15l-1.79-4.76h-11.27l-1.81,4.76H228.22z M245.06,114.64
			l-4.24-10.65l-4.28,10.65H245.06z"/>
		<path class="st0" d="M183.67,133.57h20v4.29h-7.59v20h-4.81v-20h-7.6V133.57z"/>
		<path class="st0" d="M207.1,133.57h17.28v4.19h-12.45v5.6h10.81v4.19h-10.81v6.15h12.72v4.17H207.1V133.57z"/>
		<path class="st0" d="M226.17,157.87l9.8-24.3h5.55l9.82,24.3h-5.15l-1.79-4.76h-11.27l-1.81,4.76H226.17z M243,149.26l-4.24-10.65
			l-4.28,10.65H243z"/>
		<path class="st0" d="M254.45,133.57h5.12l7.84,16.17l7.82-16.17h5.12v24.3h-4.83v-14.9l-6.55,13.28h-3.13l-6.55-13.28v14.9h-4.83
			V133.57z"/>
	</g>
</g>
</svg>
